<?xml version="1.0" standalone="no"?>
<!DOCTYPE svg PUBLIC "-//W3C//DTD SVG 20010904//EN"
 "http://www.w3.org/TR/2001/REC-SVG-20010904/DTD/svg10.dtd">
<svg version="1.0" xmlns="http://www.w3.org/2000/svg"
 width="50.000000pt" height="50.000000pt" viewBox="0 0 50.000000 50.000000"
 preserveAspectRatio="xMidYMid meet">

<g transform="translate(0.000000,50.000000) scale(0.100000,-0.100000)"
fill="#000000" stroke="none">
<path d="M125 458 c-3 -8 -4 -106 -3 -218 l3 -205 125 0 125 0 3 58 c2 35 -1
57 -8 57 -5 0 -10 -9 -10 -20 0 -19 -7 -20 -110 -20 l-110 0 0 145 0 145 110
0 110 0 0 -30 c0 -16 5 -30 10 -30 7 0 10 24 8 63 l-3 62 -123 3 c-94 2 -124
0 -127 -10z m235 -23 c0 -12 -19 -15 -110 -15 -91 0 -110 3 -110 15 0 12 19
15 110 15 91 0 110 -3 110 -15z m0 -365 c0 -19 -7 -20 -110 -20 -103 0 -110 1
-110 20 0 19 7 20 110 20 103 0 110 -1 110 -20z"/>
<path d="M210 70 c0 -5 18 -10 40 -10 22 0 40 5 40 10 0 6 -18 10 -40 10 -22
0 -40 -4 -40 -10z"/>
<path d="M230 245 l0 -75 125 0 125 0 0 75 0 75 -125 0 -125 0 0 -75z m216 41
c8 -8 14 -26 14 -41 0 -44 -21 -55 -105 -55 -84 0 -105 11 -105 55 0 45 18 54
103 55 55 0 83 -4 93 -14z"/>
<path d="M330 266 c-27 -33 18 -72 48 -42 13 13 14 20 6 34 -15 23 -38 26 -54
8z m40 -21 c0 -8 -7 -15 -15 -15 -8 0 -15 7 -15 15 0 8 7 15 15 15 8 0 15 -7
15 -15z"/>
<path d="M272 249 c2 -6 8 -10 13 -10 5 0 11 4 13 10 2 6 -4 11 -13 11 -9 0
-15 -5 -13 -11z"/>
<path d="M412 249 c2 -6 8 -10 13 -10 5 0 11 4 13 10 2 6 -4 11 -13 11 -9 0
-15 -5 -13 -11z"/>
</g>
</svg>
