<?xml version="1.0" standalone="no"?>
<!DOCTYPE svg PUBLIC "-//W3C//DTD SVG 20010904//EN"
 "http://www.w3.org/TR/2001/REC-SVG-20010904/DTD/svg10.dtd">
<svg version="1.0" xmlns="http://www.w3.org/2000/svg"
 width="50.000000pt" height="50.000000pt" viewBox="0 0 50.000000 50.000000"
 preserveAspectRatio="xMidYMid meet">

<g transform="translate(0.000000,50.000000) scale(0.100000,-0.100000)"
fill="#000000" stroke="none">
<path d="M145 485 c-22 -8 -54 -30 -72 -49 -63 -68 -68 -170 -14 -272 24 -43
31 -70 31 -110 0 -30 5 -54 10 -54 24 0 10 103 -25 180 -40 88 -44 135 -16
195 32 69 91 105 170 105 92 0 162 -47 181 -123 6 -23 22 -63 36 -89 l25 -48
-25 -12 c-22 -9 -26 -18 -26 -55 0 -54 -26 -83 -75 -83 -33 0 -35 -2 -35 -35
0 -19 5 -35 10 -35 6 0 10 11 10 25 0 18 5 25 20 25 52 0 90 41 90 98 0 17 10
34 28 48 l27 23 -27 48 c-14 26 -31 67 -37 90 -31 114 -160 172 -286 128z"/>
<path d="M193 420 c-6 -22 -23 -26 -39 -10 -7 7 -16 4 -28 -9 -11 -12 -14 -21
-7 -26 18 -10 12 -32 -9 -38 -27 -7 -27 -47 0 -54 22 -6 26 -23 10 -39 -7 -7
-4 -16 9 -28 12 -11 21 -14 26 -7 10 18 32 12 38 -9 7 -27 44 -26 52 1 5 16
12 19 34 14 30 -6 62 17 41 30 -17 10 -11 32 10 38 12 3 20 14 20 27 0 13 -8
24 -20 27 -22 6 -26 23 -10 39 7 7 4 16 -9 28 -12 11 -21 14 -26 7 -10 -18
-32 -12 -38 9 -3 12 -14 20 -27 20 -13 0 -24 -8 -27 -20z m37 -15 c0 -21 34
-37 48 -23 7 7 15 9 19 5 4 -4 2 -12 -5 -19 -14 -14 2 -48 23 -48 8 0 15 -4
15 -10 0 -5 -7 -10 -15 -10 -21 0 -37 -34 -23 -48 7 -7 9 -15 5 -19 -4 -4 -12
-2 -18 4 -16 16 -49 4 -49 -18 0 -11 -4 -19 -10 -19 -5 0 -10 7 -10 15 0 21
-34 37 -48 23 -7 -7 -15 -9 -19 -5 -4 4 -2 12 5 19 14 14 -2 48 -23 48 -8 0
-15 5 -15 10 0 6 7 10 15 10 21 0 37 34 23 48 -7 7 -9 15 -5 19 4 4 12 2 19
-5 14 -14 48 2 48 23 0 8 5 15 10 15 6 0 10 -7 10 -15z"/>
<path d="M186 344 c-31 -30 -9 -84 34 -84 10 0 26 7 34 16 31 30 9 84 -34 84
-10 0 -26 -7 -34 -16z m59 -34 c0 -18 -6 -26 -23 -28 -13 -2 -25 3 -28 12 -10
26 4 48 28 44 17 -2 23 -10 23 -28z"/>
</g>
</svg>
