<?xml version="1.0" standalone="no"?>
<!DOCTYPE svg PUBLIC "-//W3C//DTD SVG 20010904//EN"
 "http://www.w3.org/TR/2001/REC-SVG-20010904/DTD/svg10.dtd">
<svg version="1.0" xmlns="http://www.w3.org/2000/svg"
 width="64.000000pt" height="64.000000pt" viewBox="0 0 64.000000 64.000000"
 preserveAspectRatio="xMidYMid meet">

<g transform="translate(0.000000,64.000000) scale(0.100000,-0.100000)"
fill="#000000" stroke="none">
<path d="M20 530 l0 -90 40 0 c32 0 40 -4 40 -18 0 -10 18 -35 40 -57 21 -21
37 -42 34 -47 -8 -12 -81 -10 -103 4 -24 15 -51 4 -51 -22 0 -26 27 -37 51
-22 23 15 96 16 104 2 3 -5 -2 -10 -11 -10 -10 0 -30 -12 -45 -26 -23 -22 -30
-24 -47 -13 -10 7 -27 9 -36 6 -20 -8 -21 -46 -1 -53 19 -8 75 18 100 46 15
17 30 20 97 20 l78 0 0 -27 c0 -24 -7 -31 -45 -46 -44 -19 -45 -20 -45 -67 l0
-48 50 -21 50 -22 50 22 50 21 0 48 c0 47 -1 48 -45 67 -38 15 -45 22 -45 46
0 17 5 27 15 27 8 0 15 -6 15 -14 0 -19 27 -46 46 -46 9 0 14 11 14 30 0 27 3
30 33 30 21 0 41 -8 52 -20 25 -28 81 -54 100 -46 20 7 19 45 -1 53 -9 3 -26
1 -36 -6 -17 -11 -24 -9 -47 13 -15 14 -35 26 -45 26 -9 0 -14 5 -11 10 8 14
81 13 104 -2 24 -15 51 -4 51 22 0 26 -27 37 -51 22 -22 -14 -95 -16 -103 -4
-3 5 13 26 34 47 22 22 40 47 40 57 0 14 8 18 40 18 l40 0 0 58 c0 53 -3 61
-33 90 -29 28 -39 32 -90 32 l-57 0 0 -90 0 -90 40 0 c50 0 51 -13 3 -62 l-37
-38 -21 26 c-12 15 -36 32 -55 38 -50 16 -50 36 -1 36 l41 0 0 58 c0 53 -3 61
-33 90 -29 28 -39 32 -90 32 l-57 0 0 -90 0 -90 41 0 c49 0 49 -20 -1 -36 -19
-6 -43 -23 -55 -38 l-21 -26 -37 38 c-48 49 -47 62 3 62 l40 0 0 58 c0 53 -3
61 -33 90 -29 28 -39 32 -90 32 l-57 0 0 -90z m100 40 c0 -27 3 -30 30 -30 28
0 30 -2 30 -40 l0 -40 -70 0 -70 0 0 70 0 70 40 0 c38 0 40 -2 40 -30z m210 0
c0 -27 3 -30 30 -30 28 0 30 -2 30 -40 l0 -40 -70 0 -70 0 0 70 0 70 40 0 c38
0 40 -2 40 -30z m210 0 c0 -27 3 -30 30 -30 28 0 30 -2 30 -40 l0 -40 -70 0
-70 0 0 70 0 70 40 0 c38 0 40 -2 40 -30z m-385 0 c3 -5 1 -10 -4 -10 -6 0
-11 5 -11 10 0 6 2 10 4 10 3 0 8 -4 11 -10z m210 0 c3 -5 1 -10 -4 -10 -6 0
-11 5 -11 10 0 6 2 10 4 10 3 0 8 -4 11 -10z m210 0 c3 -5 1 -10 -4 -10 -6 0
-11 5 -11 10 0 6 2 10 4 10 3 0 8 -4 11 -10z m-228 -182 c4 -7 17 -13 28 -13
11 0 24 -10 30 -22 5 -12 17 -24 27 -26 28 -8 23 -45 -7 -53 -20 -5 -25 -12
-25 -37 0 -18 -4 -27 -9 -21 -13 14 -21 73 -11 79 12 7 13 45 2 45 -5 0 -14
-16 -22 -35 -19 -48 -30 -44 -30 10 0 25 -4 45 -10 45 -5 0 -10 -20 -10 -45 0
-54 -11 -58 -30 -10 -8 19 -17 35 -22 35 -12 0 -10 -38 2 -45 30 -19 -14 -34
-54 -19 -22 8 -20 45 2 51 10 2 22 14 27 26 6 12 19 22 30 22 11 0 24 6 28 13
4 6 17 12 27 12 10 0 23 -6 27 -12z m-287 -88 c0 -5 -4 -10 -10 -10 -5 0 -10
5 -10 10 0 6 5 10 10 10 6 0 10 -4 10 -10z m540 0 c0 -5 -4 -10 -10 -10 -5 0
-10 5 -10 10 0 6 5 10 10 10 6 0 10 -4 10 -10z m-540 -90 c0 -5 -4 -10 -10
-10 -5 0 -10 5 -10 10 0 6 5 10 10 10 6 0 10 -4 10 -10z m540 0 c0 -5 -4 -10
-10 -10 -5 0 -10 5 -10 10 0 6 5 10 10 10 6 0 10 -4 10 -10z m-287 -52 c4 -10
7 -10 15 0 8 13 42 7 42 -7 0 -4 -11 -13 -25 -19 -19 -9 -31 -9 -50 0 -27 12
-32 24 -12 31 20 9 25 8 30 -5z m-20 -45 c11 -4 17 -15 17 -35 0 -25 -3 -29
-17 -23 -10 4 -26 10 -35 12 -12 4 -18 15 -18 35 0 25 3 29 18 23 9 -4 25 -10
35 -12z m107 -12 c0 -19 -6 -30 -17 -34 -10 -2 -26 -8 -35 -12 -15 -6 -18 -2
-18 22 0 22 6 32 28 40 40 16 42 15 42 -16z"/>
<path d="M130 150 c0 -5 5 -10 10 -10 6 0 10 5 10 10 0 6 -4 10 -10 10 -5 0
-10 -4 -10 -10z"/>
<path d="M490 150 c0 -5 5 -10 10 -10 6 0 10 5 10 10 0 6 -4 10 -10 10 -5 0
-10 -4 -10 -10z"/>
<path d="M130 110 c0 -5 5 -10 10 -10 6 0 10 5 10 10 0 6 -4 10 -10 10 -5 0
-10 -4 -10 -10z"/>
<path d="M170 110 c0 -5 5 -10 10 -10 6 0 10 5 10 10 0 6 -4 10 -10 10 -5 0
-10 -4 -10 -10z"/>
<path d="M450 110 c0 -5 5 -10 10 -10 6 0 10 5 10 10 0 6 -4 10 -10 10 -5 0
-10 -4 -10 -10z"/>
<path d="M490 110 c0 -5 5 -10 10 -10 6 0 10 5 10 10 0 6 -4 10 -10 10 -5 0
-10 -4 -10 -10z"/>
<path d="M130 70 c0 -5 5 -10 10 -10 6 0 10 5 10 10 0 6 -4 10 -10 10 -5 0
-10 -4 -10 -10z"/>
<path d="M490 70 c0 -5 5 -10 10 -10 6 0 10 5 10 10 0 6 -4 10 -10 10 -5 0
-10 -4 -10 -10z"/>
</g>
</svg>
