<?xml version="1.0" standalone="no"?>
<!DOCTYPE svg PUBLIC "-//W3C//DTD SVG 20010904//EN"
 "http://www.w3.org/TR/2001/REC-SVG-20010904/DTD/svg10.dtd">
<svg version="1.0" xmlns="http://www.w3.org/2000/svg"
 width="50.000000pt" height="50.000000pt" viewBox="0 0 50.000000 50.000000"
 preserveAspectRatio="xMidYMid meet">

<g transform="translate(0.000000,50.000000) scale(0.100000,-0.100000)"
fill="#000000" stroke="none">
<path d="M30 310 l0 -161 52 -64 52 -65 168 0 168 0 0 168 0 168 -64 57 -65
57 -155 0 -156 0 0 -160z m355 95 l50 -45 -68 0 c-58 0 -73 4 -101 25 -28 21
-44 25 -102 25 -58 0 -71 3 -82 20 -12 20 -10 20 120 20 l133 -1 50 -44z
m-305 -72 c0 -64 4 -79 25 -107 21 -28 25 -44 25 -101 l0 -68 -40 51 -40 50 0
137 c0 121 2 136 15 125 11 -9 15 -33 15 -87z m166 42 c17 -13 14 -14 -42 -15
-43 0 -65 5 -74 15 -11 13 -5 15 42 15 32 0 62 -6 74 -15z m-116 -89 c-1 -56
-2 -59 -15 -42 -9 12 -15 42 -15 74 0 47 2 53 15 42 10 -9 15 -31 15 -74z
m150 -11 l0 -65 -65 0 -65 0 0 65 0 65 65 0 65 0 0 -65z m170 -85 l0 -150
-150 0 -150 0 0 75 c0 73 1 75 25 75 22 0 25 -4 25 -40 0 -31 -3 -38 -15 -34
-21 9 -19 -10 5 -31 19 -17 21 -17 40 0 24 21 26 40 5 31 -12 -4 -15 3 -15 34
0 40 0 40 40 40 l40 0 0 40 0 40 45 0 c35 0 43 -3 39 -15 -9 -21 10 -19 31 5
17 19 17 21 0 40 -21 24 -40 26 -31 5 4 -12 -4 -15 -39 -15 -41 0 -45 2 -45
25 0 24 2 25 75 25 l75 0 0 -150z"/>
</g>
</svg>
