<?xml version="1.0" standalone="no"?>
<!DOCTYPE svg PUBLIC "-//W3C//DTD SVG 20010904//EN"
 "http://www.w3.org/TR/2001/REC-SVG-20010904/DTD/svg10.dtd">
<svg version="1.0" xmlns="http://www.w3.org/2000/svg"
 width="64.000000pt" height="64.000000pt" viewBox="0 0 64.000000 64.000000"
 preserveAspectRatio="xMidYMid meet">

<g transform="translate(0.000000,64.000000) scale(0.100000,-0.100000)"
fill="#000000" stroke="none">
<path d="M184 556 c-31 -14 -94 -82 -94 -102 0 -15 28 -14 34 2 7 19 112 17
131 -2 8 -9 15 -12 15 -8 0 4 11 -3 25 -16 14 -13 23 -25 20 -28 -2 -2 2 -11
10 -18 20 -20 18 -121 -2 -133 -24 -13 3 -24 27 -11 16 9 25 8 36 -1 21 -17
42 4 25 25 -10 11 -10 20 -1 37 51 93 23 196 -65 246 -46 26 -113 30 -161 9z
m231 -135 c8 -48 -7 -101 -36 -127 -21 -18 -21 -18 1 18 29 49 29 116 0 165
l-22 38 25 -27 c14 -15 28 -45 32 -67z"/>
<path d="M497 494 c-15 -15 -7 -53 13 -59 27 -8 52 12 48 39 -3 21 -46 35 -61
20z"/>
<path d="M134 445 c-4 -8 -14 -15 -23 -15 -23 0 -41 -19 -34 -36 3 -8 0 -14
-6 -14 -17 0 -31 -43 -17 -52 8 -5 8 -10 0 -18 -15 -15 -6 -50 13 -50 9 0 13
-6 9 -15 -7 -19 20 -46 39 -39 9 4 15 0 15 -9 0 -19 35 -28 50 -13 8 8 13 7
19 -3 7 -10 13 -11 30 -2 11 7 21 17 21 22 0 6 6 9 14 6 16 -6 36 11 36 31 0
8 8 21 17 28 14 10 16 17 7 31 -8 13 -8 23 0 36 9 15 7 22 -11 36 -12 10 -19
21 -16 25 10 9 -19 37 -34 32 -7 -3 -13 1 -13 9 0 19 -38 29 -55 15 -9 -7 -15
-8 -20 0 -9 15 -35 12 -41 -5z m89 -56 c48 -22 60 -83 25 -123 -53 -58 -138
-26 -138 53 0 63 55 97 113 70z"/>
<path d="M147 370 c-18 -15 -27 -31 -27 -51 0 -65 80 -93 119 -43 26 33 26 55
4 82 -27 32 -64 37 -96 12z m78 -20 c27 -29 10 -74 -28 -78 -36 -4 -57 13 -57
49 0 47 53 65 85 29z"/>
<path d="M168 349 c-33 -19 -15 -69 24 -69 9 0 22 9 28 21 9 16 8 25 -6 40
-20 22 -22 22 -46 8z"/>
<path d="M425 230 c-23 -24 -26 -33 -17 -42 10 -10 19 -6 43 18 25 25 28 33
16 42 -11 9 -20 5 -42 -18z"/>
<path d="M457 192 l-27 -28 48 -47 c49 -48 69 -56 90 -35 22 22 12 52 -30 95
-23 24 -45 43 -48 43 -4 0 -18 -13 -33 -28z m106 -68 c11 -11 -5 -34 -24 -34
-12 0 -19 7 -19 20 0 19 28 28 43 14z"/>
<path d="M530 110 c0 -5 5 -10 10 -10 6 0 10 5 10 10 0 6 -4 10 -10 10 -5 0
-10 -4 -10 -10z"/>
<path d="M175 110 c-3 -5 -1 -10 4 -10 6 0 11 5 11 10 0 6 -2 10 -4 10 -3 0
-8 -4 -11 -10z"/>
<path d="M237 96 c-8 -20 20 -43 35 -28 14 14 3 42 -16 42 -7 0 -16 -6 -19
-14z"/>
</g>
</svg>
