<?xml version="1.0" standalone="no"?>
<!DOCTYPE svg PUBLIC "-//W3C//DTD SVG 20010904//EN"
 "http://www.w3.org/TR/2001/REC-SVG-20010904/DTD/svg10.dtd">
<svg version="1.0" xmlns="http://www.w3.org/2000/svg"
 width="64.000000pt" height="64.000000pt" viewBox="0 0 64.000000 64.000000"
 preserveAspectRatio="xMidYMid meet">

<g transform="translate(0.000000,64.000000) scale(0.100000,-0.100000)"
fill="#000000" stroke="none">
<path d="M348 596 c-34 -23 -35 -23 -81 -5 -45 18 -46 18 -69 -1 -20 -17 -21
-21 -8 -31 10 -7 11 -12 4 -15 -117 -48 -188 -174 -170 -298 8 -54 64 -149 91
-154 19 -4 19 -3 -2 20 -22 23 -22 24 -3 36 11 7 20 18 20 26 0 7 9 21 20 31
27 25 25 61 -4 80 -19 13 -29 14 -45 6 -32 -18 -61 -14 -61 8 0 14 8 21 26 23
42 5 53 32 25 62 l-23 25 22 32 c42 58 146 109 164 81 3 -5 -8 -22 -24 -37
-17 -16 -30 -35 -30 -43 0 -10 -7 -12 -24 -8 -30 7 -69 -30 -46 -44 8 -6 21
-10 28 -10 7 0 18 -13 23 -30 6 -17 14 -30 18 -30 18 0 40 37 34 58 -3 14 -1
22 8 22 7 0 27 14 45 31 l32 31 23 -41 c26 -47 32 -49 53 -20 13 19 13 27 -5
71 -18 46 -18 49 -2 46 10 -2 18 -10 18 -18 0 -9 8 -14 18 -12 33 6 47 -17 47
-74 0 -52 0 -53 -32 -56 l-33 -3 -3 -147 c-3 -154 -7 -168 -43 -125 -24 29
-24 43 2 50 17 5 20 12 17 44 -3 34 -6 38 -32 41 -21 3 -37 -4 -60 -26 -17
-17 -40 -32 -51 -34 -23 -4 -34 -53 -16 -71 19 -19 13 -39 -10 -32 -15 5 -20
3 -17 -6 10 -30 120 -37 183 -12 22 9 85 19 140 22 l100 6 0 145 0 145 -32 3
-32 3 -3 66 c-3 76 -21 98 -59 75 -13 -9 -25 -10 -31 -4 -9 9 9 24 59 50 19
10 20 9 16 -8 -9 -32 12 -23 29 14 l16 33 -33 16 c-36 17 -58 10 -24 -8 20
-11 18 -14 -34 -43 -61 -35 -93 -34 -82 2 18 58 18 66 -2 66 -11 0 -36 -11
-55 -24z m52 -5 c0 -5 -11 -23 -25 -39 l-25 -30 20 -51 c24 -62 10 -76 -21
-21 -13 22 -25 40 -29 40 -3 0 -21 -16 -40 -35 -19 -19 -40 -35 -47 -35 -23 0
-14 25 22 60 19 19 35 37 35 40 0 4 -18 16 -40 29 -55 31 -41 45 21 21 l51
-20 30 25 c31 26 48 32 48 16z m128 -169 c3 -57 1 -62 -18 -62 -18 0 -20 6
-20 58 0 32 3 62 7 66 17 17 28 -5 31 -62z m-317 -40 c5 -12 4 -24 -1 -27 -5
-3 -11 4 -15 14 -3 11 -15 23 -26 26 -10 4 -17 10 -14 15 9 15 48 -5 56 -28z
m-121 -33 c0 -5 -9 -9 -20 -9 -19 0 -27 20 -13 33 7 8 33 -11 33 -24z m510
-139 l0 -130 -90 0 -90 0 0 130 0 130 90 0 90 0 0 -130z m-456 47 c8 -12 5
-22 -10 -39 -12 -13 -24 -31 -27 -40 -11 -32 -35 -19 -51 29 -9 26 -16 48 -16
50 0 2 13 3 29 3 17 0 33 5 36 11 9 13 26 7 39 -14z m216 -81 c0 -15 -7 -26
-20 -29 -24 -6 -27 -43 -4 -68 23 -26 9 -39 -42 -39 -40 0 -44 2 -44 24 0 14
-4 28 -10 31 -18 11 -11 45 8 45 10 0 31 14 47 30 35 37 65 40 65 6z"/>
<path d="M450 210 c0 -67 4 -110 10 -110 6 0 10 43 10 110 0 67 -4 110 -10
110 -6 0 -10 -43 -10 -110z"/>
<path d="M500 210 c0 -67 4 -110 10 -110 6 0 10 43 10 110 0 67 -4 110 -10
110 -6 0 -10 -43 -10 -110z"/>
<path d="M550 210 c0 -67 4 -110 10 -110 6 0 10 43 10 110 0 67 -4 110 -10
110 -6 0 -10 -43 -10 -110z"/>
<path d="M281 373 c-42 -51 -96 -156 -114 -223 -23 -82 -29 -130 -18 -130 6 0
13 17 16 38 15 84 59 197 107 268 54 81 59 108 9 47z"/>
<path d="M291 300 c-39 -54 -9 -77 58 -44 26 13 32 21 29 43 -2 21 -9 27 -33
29 -24 2 -35 -3 -54 -28z m69 -2 c0 -12 -43 -38 -62 -38 -5 0 -1 11 9 25 19
26 53 34 53 13z"/>
<path d="M440 30 c0 -5 7 -10 15 -10 8 0 15 5 15 10 0 6 -7 10 -15 10 -8 0
-15 -4 -15 -10z"/>
<path d="M560 30 c0 -5 7 -10 15 -10 8 0 15 5 15 10 0 6 -7 10 -15 10 -8 0
-15 -4 -15 -10z"/>
</g>
</svg>
