<?xml version="1.0" standalone="no"?>
<!DOCTYPE svg PUBLIC "-//W3C//DTD SVG 20010904//EN"
 "http://www.w3.org/TR/2001/REC-SVG-20010904/DTD/svg10.dtd">
<svg version="1.0" xmlns="http://www.w3.org/2000/svg"
 width="68.000000pt" height="68.000000pt" viewBox="0 0 68.000000 68.000000"
 preserveAspectRatio="xMidYMid meet">

<g transform="translate(0.000000,68.000000) scale(0.100000,-0.100000)"
fill="#000000" stroke="none">
<path d="M48 639 c-22 -12 -23 -45 -3 -53 13 -4 15 -34 15 -177 0 -149 -2
-175 -17 -191 -30 -34 -6 -53 71 -56 l67 -3 -31 -54 c-17 -30 -29 -59 -25 -65
3 -5 21 -10 40 -10 31 0 36 5 67 63 l33 62 75 0 75 0 33 -62 c31 -58 36 -63
67 -63 19 0 37 5 40 10 4 6 -8 35 -25 65 l-31 54 67 3 c77 3 101 22 71 56 -15
16 -17 42 -17 191 0 143 2 173 15 177 21 9 19 41 -4 54 -26 14 -560 13 -583
-1z m552 -234 l0 -175 -260 0 -260 0 0 175 0 175 260 0 260 0 0 -175z"/>
<path d="M212 551 c-8 -5 -12 -17 -10 -27 3 -17 14 -19 138 -19 124 0 135 2
138 19 6 30 -16 36 -138 36 -63 0 -121 -4 -128 -9z"/>
<path d="M139 466 c-10 -11 -2 -35 12 -39 14 -4 19 0 19 17 0 14 -6 23 -15 23
-8 0 -15 -1 -16 -1z"/>
<path d="M265 461 c-47 -6 -50 -8 -53 -38 -3 -30 -6 -32 -45 -35 l-42 -3 -7
-60 c-7 -67 3 -88 29 -63 13 14 14 20 4 32 -7 8 -11 27 -9 43 3 25 7 28 46 31
41 3 42 4 42 38 0 33 1 34 40 34 22 0 40 -4 40 -10 0 -6 10 -5 25 2 23 10 23
12 7 24 -9 7 -19 13 -22 12 -3 -1 -27 -4 -55 -7z"/>
<path d="M390 420 c0 -6 36 -10 89 -10 50 0 93 5 96 10 4 6 -28 10 -89 10 -57
0 -96 -4 -96 -10z"/>
<path d="M250 390 c0 -13 7 -20 20 -20 13 0 20 7 20 20 0 13 -7 20 -20 20 -13
0 -20 -7 -20 -20z"/>
<path d="M390 370 c0 -6 37 -10 90 -10 53 0 90 4 90 10 0 6 -37 10 -90 10 -53
0 -90 -4 -90 -10z"/>
<path d="M267 334 c-14 -15 -6 -34 14 -34 14 0 19 5 17 17 -3 18 -20 27 -31
17z"/>
<path d="M184 311 c0 -25 33 -24 39 1 4 13 -1 18 -17 18 -15 0 -22 -6 -22 -19z"/>
<path d="M390 320 c0 -6 36 -10 89 -10 50 0 93 5 96 10 4 6 -28 10 -89 10 -57
0 -96 -4 -96 -10z"/>
<path d="M390 270 c0 -6 36 -10 89 -10 50 0 93 5 96 10 4 6 -28 10 -89 10 -57
0 -96 -4 -96 -10z"/>
</g>
</svg>
