<?xml version="1.0" standalone="no"?>
<!DOCTYPE svg PUBLIC "-//W3C//DTD SVG 20010904//EN"
 "http://www.w3.org/TR/2001/REC-SVG-20010904/DTD/svg10.dtd">
<svg version="1.0" xmlns="http://www.w3.org/2000/svg"
 width="48.000000pt" height="48.000000pt" viewBox="0 0 48.000000 48.000000"
 preserveAspectRatio="xMidYMid meet">

<g transform="translate(0.000000,48.000000) scale(0.100000,-0.100000)"
fill="#000000" stroke="none">
<path d="M5 468 c-3 -8 -4 -115 -3 -238 l3 -225 105 0 105 0 0 235 0 235 -103
3 c-77 2 -104 -1 -107 -10z m195 -228 l0 -220 -90 0 -90 0 0 220 0 220 90 0
90 0 0 -220z"/>
<path d="M260 470 c0 -6 43 -10 110 -10 67 0 110 4 110 10 0 6 -43 10 -110 10
-67 0 -110 -4 -110 -10z"/>
<path d="M260 410 c0 -6 43 -10 110 -10 67 0 110 4 110 10 0 6 -43 10 -110 10
-67 0 -110 -4 -110 -10z"/>
<path d="M260 350 c0 -6 43 -10 110 -10 67 0 110 4 110 10 0 6 -43 10 -110 10
-67 0 -110 -4 -110 -10z"/>
<path d="M260 290 c0 -6 43 -10 110 -10 67 0 110 4 110 10 0 6 -43 10 -110 10
-67 0 -110 -4 -110 -10z"/>
<path d="M260 230 c0 -6 43 -10 110 -10 67 0 110 4 110 10 0 6 -43 10 -110 10
-67 0 -110 -4 -110 -10z"/>
<path d="M264 167 c-3 -8 -4 -47 -2 -88 l3 -74 105 0 105 0 0 85 0 85 -103 3
c-80 2 -104 0 -108 -11z m196 -77 l0 -70 -90 0 -90 0 0 70 0 70 90 0 90 0 0
-70z"/>
</g>
</svg>
