<?xml version="1.0" standalone="no"?>
<!DOCTYPE svg PUBLIC "-//W3C//DTD SVG 20010904//EN"
 "http://www.w3.org/TR/2001/REC-SVG-20010904/DTD/svg10.dtd">
<svg version="1.0" xmlns="http://www.w3.org/2000/svg"
 width="68.000000pt" height="68.000000pt" viewBox="0 0 68.000000 68.000000"
 preserveAspectRatio="xMidYMid meet">

<g transform="translate(0.000000,68.000000) scale(0.100000,-0.100000)"
fill="#000000" stroke="none">
<path d="M40 640 c-19 -19 -20 -33 -20 -300 0 -267 1 -281 20 -300 19 -19 33
-20 235 -20 271 0 255 -10 255 158 l0 118 42 14 c49 17 88 67 88 112 0 64 -55
128 -109 128 -17 0 -21 6 -21 35 0 22 -8 43 -20 55 -19 19 -33 20 -235 20
-202 0 -216 -1 -235 -20z m451 -10 c26 -14 27 -76 1 -84 -10 -4 -31 -19 -46
-35 -57 -59 -37 -167 34 -194 l30 -11 0 -123 c0 -111 -2 -123 -19 -133 -26
-13 -406 -13 -432 0 -18 10 -19 24 -19 290 0 255 1 280 18 289 23 14 407 14
433 1z m89 -172 c0 -14 -20 -9 -26 7 -9 22 -34 18 -34 -5 0 -11 6 -20 13 -20
8 0 22 -9 31 -19 18 -20 16 -31 -12 -64 -14 -16 -16 -16 -34 -1 -10 10 -18 26
-18 37 0 20 1 20 14 2 8 -11 19 -16 30 -12 21 8 12 25 -20 37 -29 11 -31 41
-6 75 l17 24 23 -26 c12 -14 22 -30 22 -35z m-110 -18 c0 -5 -4 -10 -10 -10
-5 0 -10 5 -10 10 0 6 5 10 10 10 6 0 10 -4 10 -10z m150 0 c0 -5 -4 -10 -10
-10 -5 0 -10 5 -10 10 0 6 5 10 10 10 6 0 10 -4 10 -10z"/>
<path d="M100 580 c0 -5 11 -10 25 -10 30 0 31 -5 5 -55 -11 -22 -20 -49 -20
-60 0 -11 9 -38 20 -60 25 -48 25 -45 -5 -45 -14 0 -25 -5 -25 -10 0 -6 19
-11 43 -10 23 0 86 -2 140 -5 58 -2 97 0 97 5 0 6 -11 10 -25 10 l-24 0 24 36
c31 46 33 107 5 149 -26 39 -25 45 5 45 14 0 25 5 25 10 0 12 -57 13 -64 1 -4
-5 -20 -5 -41 2 -25 7 -45 7 -72 -1 -24 -8 -41 -8 -47 -2 -13 13 -66 13 -66 0z
m200 -25 c35 -18 60 -62 60 -104 0 -27 -2 -30 -22 -22 -15 5 -24 18 -26 34 -2
15 -14 35 -28 46 -13 10 -24 28 -24 40 0 25 2 25 40 6z m-22 -67 c30 -30 3
-83 -39 -76 -32 5 -45 31 -31 62 13 28 49 35 70 14z m-95 -48 c4 -19 16 -34
32 -42 25 -11 37 -58 14 -58 -52 0 -125 111 -93 143 13 13 42 -13 47 -43z"/>
<path d="M387 274 c-4 -4 -7 -47 -7 -96 l0 -88 30 0 31 0 -3 93 c-3 84 -5 92
-23 95 -12 2 -24 0 -28 -4z"/>
<path d="M207 244 c-4 -4 -7 -40 -7 -81 l0 -73 30 0 31 0 -3 78 c-3 69 -5 77
-23 80 -12 2 -24 0 -28 -4z"/>
<path d="M290 150 l0 -60 30 0 30 0 0 60 0 60 -30 0 -30 0 0 -60z"/>
<path d="M117 174 c-4 -4 -7 -25 -7 -46 0 -36 2 -38 31 -38 29 0 30 1 27 43
-2 33 -7 43 -23 45 -12 2 -24 0 -28 -4z"/>
</g>
</svg>
